<svg xmlns="http://www.w3.org/2000/svg" version="1.1" xmlns:xlink="http://www.w3.org/1999/xlink" xmlns:svgjs="http://svgjs.dev/svgjs" width="2000" height="444" viewBox="0 0 2000 444"><g transform="matrix(1,0,0,1,-1.2121212121212466,-0.7540801150284722)"><svg viewBox="0 0 396 88" data-background-color="#102e44" preserveAspectRatio="xMidYMid meet" height="444" width="2000" xmlns="http://www.w3.org/2000/svg" xmlns:xlink="http://www.w3.org/1999/xlink"><g id="tight-bounds" transform="matrix(1,0,0,1,0.2400000000000091,0.14945732009573476)"><svg viewBox="0 0 395.52 87.7010853598085" height="87.7010853598085" width="395.52"><g><svg viewBox="0 0 514.5499532313156 114.09432992067426" height="87.7010853598085" width="395.52"><g transform="matrix(1,0,0,1,117.0523532313157,0)"><svg viewBox="0 0 397.4975999999999 114.09432992067426" height="114.09432992067426" width="397.4975999999999"><g id="textblocktransform"><svg viewBox="0 0 397.4975999999999 114.09432992067426" height="114.09432992067426" width="397.4975999999999" id="textblock"><g><rect width="397.4975999999999" height="6.164792515775696" x="0" y="75.62238051184771" fill="#ffffff" opacity="1" stroke-width="0" stroke="transparent" fill-opacity="1" class="rect-qz-0" data-fill-palette-color="primary" rx="1%" id="qz-0" data-palette-color="#ffffff"></rect></g><g transform="matrix(1,0,0,1,0.9887999999999693,0)"><svg viewBox="0 0 395.52 68.36019037546272" height="68.36019037546272" width="395.52"><g transform="matrix(1,0,0,1,0,0)"><svg width="395.52" viewBox="1.37 -42.19 276.98 47.879999999999995" height="68.36019037546272" data-palette-color="#ffffff"><path d="M23.34-15.58L25.61-11.94 23.8-11.5 21.85-14.65 23.34-15.58ZM34.47 5.69L31.69 1.17 33.33 0.46 35.96 4.74 34.47 5.69ZM26.37-17.41L28.74-13.57 27.27-12.65 24.88-16.48 26.37-17.41ZM37.43 3.81L34.89-0.34 36.38-1.27 38.92 2.86 37.43 3.81ZM29.35-19.29L31.15-16.36 30.08-14.75 27.88-18.29 29.35-19.29ZM40.41 1.9L37.82-2.27 39.16-3.47 41.89 0.95 40.41 1.9ZM16.5-27.05Q13.67-24.22 13.67-20.21 13.67-16.21 16.5-13.38 19.34-10.55 23.34-10.55 27.34-10.55 30.18-13.38 33.01-16.21 33.01-20.21 33.01-24.22 30.18-27.05 27.34-29.88 23.34-29.88 19.34-29.88 16.5-27.05ZM12.82-15.78Q11.91-17.9 11.91-20.21 11.91-22.53 12.82-24.65 13.72-26.76 15.26-28.3 16.8-29.83 18.91-30.74 21.02-31.64 23.34-31.64 25.66-31.64 27.77-30.74 29.88-29.83 31.42-28.3 32.96-26.76 33.86-24.65 34.77-22.53 34.77-20.21 34.77-17.9 33.86-15.78 32.96-13.67 31.42-12.13 29.88-10.6 27.77-9.69 25.66-8.79 23.34-8.79 21.02-8.79 18.91-9.69 16.8-10.6 15.26-12.13 13.72-13.67 12.82-15.78ZM11.93-26.83Q10.16-23.8 10.16-20.21 10.16-16.63 11.93-13.6 13.7-10.57 16.72-8.8 19.75-7.03 23.34-7.03 26.93-7.03 29.96-8.8 32.98-10.57 34.75-13.6 36.52-16.63 36.52-20.21 36.52-23.8 34.75-26.83 32.98-29.86 29.96-31.63 26.93-33.4 23.34-33.4 19.75-33.4 16.72-31.63 13.7-29.86 11.93-26.83ZM10.4-12.72Q8.4-16.16 8.4-20.21 8.4-24.27 10.4-27.71 12.4-31.15 15.84-33.15 19.29-35.16 23.34-35.16 27.39-35.16 30.83-33.15 34.28-31.15 36.28-27.71 38.28-24.27 38.28-20.21 38.28-16.16 36.28-12.72 34.28-9.28 30.83-7.28 27.39-5.27 23.34-5.27 19.29-5.27 15.84-7.28 12.4-9.28 10.4-12.72ZM7.96-26.71Q6.64-23.61 6.64-20.21 6.64-16.82 7.96-13.72 9.28-10.62 11.51-8.39 13.75-6.15 16.85-4.83 19.95-3.52 23.34-3.52 26.73-3.52 29.83-4.83 32.93-6.15 35.17-8.39 37.4-10.62 38.72-13.72 40.04-16.82 40.04-20.21 40.04-23.61 38.72-26.71 37.4-29.81 35.17-32.04 32.93-34.28 29.83-35.6 26.73-36.91 23.34-36.91 19.95-36.91 16.85-35.6 13.75-34.28 11.51-32.04 9.28-29.81 7.96-26.71ZM7.36-10.96Q4.88-15.21 4.88-20.21 4.88-25.22 7.36-29.47 9.84-33.72 14.09-36.19 18.33-38.67 23.34-38.67 28.34-38.67 32.59-36.19 36.84-33.72 39.32-29.47 41.8-25.22 41.8-20.21 41.8-15.21 39.32-10.96 36.84-6.71 32.59-4.24 28.34-1.76 23.34-1.76 18.33-1.76 14.09-4.24 9.84-6.71 7.36-10.96ZM4.72-28.06Q3.13-24.32 3.13-20.21 3.13-16.11 4.72-12.37 6.32-8.62 9.03-5.91 11.74-3.2 15.49-1.6 19.24 0 23.34 0 27.44 0 31.19-1.6 34.94-3.2 37.65-5.91 40.36-8.62 41.96-12.37 43.55-16.11 43.55-20.21 43.55-24.32 41.96-28.06 40.36-31.81 37.65-34.52 34.94-37.23 31.19-38.83 27.44-40.43 23.34-40.43 19.24-40.43 15.49-38.83 11.74-37.23 9.03-34.52 6.32-31.81 4.72-28.06ZM3.11-11.68Q1.37-15.75 1.37-20.21 1.37-24.68 3.11-28.75 4.86-32.81 7.8-35.75 10.74-38.7 14.81-40.44 18.87-42.19 23.34-42.19 27.81-42.19 31.87-40.44 35.94-38.7 38.88-35.75 41.82-32.81 43.57-28.75 45.31-24.68 45.31-20.21 45.31-15.75 43.57-11.68 41.82-7.62 38.88-4.68 35.94-1.73 31.87 0.01 27.81 1.76 23.34 1.76 18.87 1.76 14.81 0.01 10.74-1.73 7.8-4.68 4.86-7.62 3.11-11.68ZM72.24-15.58L72.24-15.58 72.24-35.16 74-35.16 74-15.58Q74-12.79 71.86-10.79 69.72-8.79 66.72-8.79 63.72-8.79 61.58-10.79 59.45-12.79 59.45-15.58L59.45-15.58 59.45-35.16 61.2-35.16 61.2-15.58Q61.2-13.5 62.83-12.02 64.45-10.55 66.72-10.55 68.99-10.55 70.62-12.02 72.24-13.5 72.24-15.58ZM75.75-15.58L75.75-15.58 75.75-35.16 77.51-35.16 77.51-15.58Q77.51-11.3 74.34-8.29 71.16-5.27 66.72-5.27 62.28-5.27 59.1-8.29 55.93-11.3 55.93-15.58L55.93-15.58 55.93-35.16 57.69-35.16 57.69-15.58Q57.69-12.04 60.34-9.53 62.99-7.03 66.72-7.03L66.72-7.03Q70.43-7.03 73.09-9.53 75.75-12.04 75.75-15.58ZM79.27-15.58L79.27-15.58 79.27-35.16 81.03-35.16 81.03-15.58Q81.03-11.84 79.1-8.65 77.17-5.47 73.87-3.61 70.58-1.76 66.72-1.76 62.86-1.76 59.57-3.61 56.27-5.47 54.34-8.65 52.41-11.84 52.41-15.58L52.41-15.58 52.41-35.16 54.17-35.16 54.17-15.58Q54.17-12.33 55.86-9.55 57.54-6.76 60.43-5.14 63.33-3.52 66.72-3.52 70.11-3.52 73.01-5.14 75.9-6.76 77.59-9.55 79.27-12.33 79.27-15.58ZM82.79-15.58L82.79-15.58 82.79-35.16 84.54-35.16 84.54-15.58Q84.54-12.06 83.13-8.85 81.71-5.64 79.32-3.32 76.93-1 73.63 0.38 70.33 1.76 66.72 1.76 63.11 1.76 59.81 0.38 56.52-1 54.12-3.32 51.73-5.64 50.31-8.85 48.9-12.06 48.9-15.58L48.9-15.58 48.9-35.16 50.66-35.16 50.66-15.58Q50.66-11.38 52.82-7.79 54.98-4.2 58.68-2.1 62.38 0 66.72 0 71.07 0 74.77-2.1 78.46-4.2 80.62-7.79 82.79-11.38 82.79-15.58ZM99.51 0L99.51-35.16 101.26-35.16 101.26 0 99.51 0ZM95.99 0L95.99-35.16 97.75-35.16 97.75 0 95.99 0ZM92.48 0L92.48-35.16 94.23-35.16 94.23 0 92.48 0ZM88.96 0L88.96-35.16 90.72-35.16 90.72 0 88.96 0ZM133-17.43L142.79-35.16 140.84-35.16 131.05-17.43 140.69 0 142.64 0 133-17.43ZM129.07-17.43L138.86-35.16 136.91-35.16 127.12-17.43 136.76 0 138.71 0 129.07-17.43ZM125.14-17.43L134.93-35.16 132.98-35.16 123.19-17.43 132.83 0 134.78 0 125.14-17.43ZM121.18-17.43L131-35.16 129.05-35.16 119.23-17.43 128.9 0 130.85 0 121.18-17.43ZM116.4 0L116.4-35.16 118.16-35.16 118.16 0 116.4 0ZM112.88 0L112.88-35.16 114.64-35.16 114.64 0 112.88 0ZM109.37 0L109.37-35.16 111.13-35.16 111.13 0 109.37 0ZM105.85 0L105.85-35.16 107.61-35.16 107.61 0 105.85 0ZM171.23-23.05L171.23-23.05 169.81-21.97Q167.69-24.61 164.35-24.61L164.35-24.61Q161.44-24.61 159.38-22.55 157.31-20.48 157.31-17.58 157.31-14.67 159.38-12.61 161.44-10.55 164.35-10.55L164.35-10.55Q165.98-10.55 167.41-11.25 168.84-11.96 169.84-13.21L169.84-13.21 171.21-12.06Q169.99-10.52 168.18-9.66 166.37-8.79 164.35-8.79L164.35-8.79Q160.71-8.79 158.13-11.36 155.56-13.94 155.56-17.58 155.56-21.22 158.13-23.79 160.71-26.37 164.35-26.37L164.35-26.37Q166.4-26.37 168.2-25.48 170.01-24.58 171.23-23.05ZM173.96-25.24L173.96-25.24 172.57-24.17Q171.11-26.03 168.95-27.08 166.79-28.13 164.35-28.13L164.35-28.13Q159.98-28.13 156.89-25.02 153.8-21.92 153.8-17.58 153.8-13.23 156.89-10.13 159.98-7.03 164.35-7.03L164.35-7.03Q166.79-7.03 168.96-8.09 171.13-9.16 172.6-11.01L172.6-11.01 173.94-9.89Q172.23-7.74 169.72-6.51 167.2-5.27 164.35-5.27L164.35-5.27Q161-5.27 158.17-6.92 155.34-8.57 153.69-11.4 152.04-14.23 152.04-17.58 152.04-20.92 153.69-23.75 155.34-26.59 158.17-28.23 161-29.88 164.35-29.88L164.35-29.88Q167.2-29.88 169.73-28.65 172.26-27.42 173.96-25.24ZM176.72-27.44L176.72-27.44 175.36-26.34Q173.38-28.81 170.5-30.22 167.62-31.64 164.35-31.64L164.35-31.64Q161.49-31.64 158.89-30.53 156.29-29.42 154.4-27.53 152.5-25.63 151.39-23.03 150.28-20.43 150.28-17.58 150.28-14.72 151.39-12.12 152.5-9.52 154.4-7.63 156.29-5.74 158.89-4.63 161.49-3.52 164.35-3.52L164.35-3.52Q167.62-3.52 170.5-4.93 173.38-6.35 175.36-8.81L175.36-8.81 176.67-7.67Q174.45-4.91 171.23-3.33 168.01-1.76 164.35-1.76L164.35-1.76Q161.12-1.76 158.19-3.02 155.26-4.27 153.15-6.38 151.04-8.5 149.78-11.43 148.53-14.36 148.53-17.58 148.53-20.8 149.78-23.73 151.04-26.66 153.15-28.77 155.26-30.88 158.19-32.14 161.12-33.4 164.35-33.4L164.35-33.4Q168.03-33.4 171.27-31.81 174.5-30.22 176.72-27.44ZM179.46-29.64L179.46-29.64 178.04-28.59Q175.58-31.64 172-33.4 168.42-35.16 164.35-35.16L164.35-35.16Q160.78-35.16 157.52-33.76 154.26-32.37 151.91-30.02 149.55-27.66 148.16-24.4 146.77-21.14 146.77-17.58 146.77-14.01 148.16-10.75 149.55-7.5 151.91-5.14 154.26-2.78 157.52-1.39 160.78 0 164.35 0L164.35 0Q168.42 0 172-1.76 175.58-3.52 178.04-6.57L178.04-6.57 179.43-5.49Q176.72-2.12 172.78-0.18 168.84 1.76 164.35 1.76L164.35 1.76Q160.41 1.76 156.84 0.22 153.26-1.32 150.67-3.91 148.09-6.49 146.55-10.07 145.01-13.65 145.01-17.58 145.01-21.51 146.55-25.09 148.09-28.66 150.67-31.25 153.26-33.84 156.84-35.38 160.41-36.91 164.35-36.91L164.35-36.91Q168.84-36.91 172.79-34.97 176.75-33.03 179.46-29.64ZM196.06-15.04L196.06-16.8 206.65-16.8Q208.75-16.8 210.22-18.12 211.68-19.43 211.68-21.83L211.68-21.83Q211.68-23.58 210.16-24.98 208.63-26.37 206.65-26.37L206.65-26.37 191.56-26.37 191.56 0 189.81 0 189.81-28.13 206.65-28.13Q209.36-28.13 211.4-26.22 213.44-24.32 213.44-21.83L213.44-21.83Q213.44-18.73 211.46-16.88 209.48-15.04 206.65-15.04L206.65-15.04 196.06-15.04ZM196.06-11.52L196.06-13.28 206.65-13.28Q210.17-13.28 212.68-15.67 215.2-18.07 215.2-21.83L215.2-21.83Q215.2-25.02 212.63-27.45 210.07-29.88 206.65-29.88L206.65-29.88 188.05-29.88 188.05 0 186.29 0 186.29-31.64 206.65-31.64Q210.8-31.64 213.88-28.7 216.96-25.76 216.96-21.83L216.96-21.83Q216.96-17.43 213.92-14.48 210.88-11.52 206.65-11.52L206.65-11.52 196.06-11.52ZM196.06-8.01L196.06-9.77 206.65-9.77Q209.9-9.77 212.66-11.33 215.42-12.89 217.07-15.67 218.71-18.46 218.71-21.83L218.71-21.83Q218.71-24.88 217.08-27.55 215.44-30.22 212.65-31.81 209.85-33.4 206.65-33.4L206.65-33.4 184.53-33.4 184.53 0 182.78 0 182.78-35.16 206.65-35.16Q209.41-35.16 211.96-34.07 214.51-32.98 216.37-31.19 218.22-29.39 219.35-26.93 220.47-24.46 220.47-21.83L220.47-21.83Q220.47-17.55 218.52-14.37 216.56-11.18 213.27-9.52L213.27-9.52 216.96 0 215.08 0 211.58-8.81Q210.93-8.59 210.05-8.37L210.05-8.37 213.34 0 211.46 0 208.24-8.08Q207.48-8.01 206.65-8.01L206.65-8.01 209.75 0 207.9 0 204.82-8.01 203.23-8.01 206.19 0 204.33 0 201.35-8.01 196.06-8.01ZM195.08-22.85L195.08 0 193.32 0 193.32-24.61 206.65-24.61Q208.02-24.61 208.97-23.79 209.92-22.97 209.92-21.83L209.92-21.83Q209.92-18.55 206.65-18.55L206.65-18.55 196.06-18.55 196.06-20.31 206.65-20.31Q208.17-20.31 208.17-21.83L208.17-21.83Q208.17-22.24 207.71-22.55 207.26-22.85 206.65-22.85L206.65-22.85 195.08-22.85ZM246.81-21.97L246.81-21.97 246.81 0 245.05 0 245.05-21.97Q245.05-22.68 244.82-23.18 244.59-23.68 244.22-23.95 243.86-24.22 243.26-24.38 242.66-24.54 242.1-24.57 241.54-24.61 240.71-24.61 239.88-24.61 239.32-24.57 238.75-24.54 238.16-24.38 237.56-24.22 237.19-23.95 236.83-23.68 236.59-23.18 236.36-22.68 236.36-21.97L236.36-21.97 236.36 0 234.6 0 234.6-21.97Q234.6-26.37 240.71-26.37 246.81-26.37 246.81-21.97ZM250.33-21.97L250.33-21.97 250.33 0 248.57 0 248.57-21.97Q248.57-25.07 246.38-26.6 244.2-28.13 240.71-28.13 237.22-28.13 235.03-26.6 232.85-25.07 232.85-21.97L232.85-21.97 232.85 0 231.09 0 231.09-21.97Q231.09-24.54 232.41-26.37 233.73-28.2 235.86-29.04 238-29.88 240.71-29.88 243.42-29.88 245.55-29.04 247.69-28.2 249.01-26.37 250.33-24.54 250.33-21.97ZM253.84-21.97L253.84-21.97 253.84 0 252.08 0 252.08-21.97Q252.08-24.27 251.19-26.12 250.3-27.98 248.74-29.17 247.18-30.37 245.13-31.01 243.08-31.64 240.71-31.64 238.34-31.64 236.29-31.01 234.24-30.37 232.68-29.17 231.11-27.98 230.22-26.12 229.33-24.27 229.33-21.97L229.33-21.97 229.33 0 227.57 0 227.57-21.97Q227.57-24.63 228.61-26.81 229.65-28.98 231.43-30.41 233.21-31.84 235.61-32.62 238-33.4 240.71-33.4 243.42-33.4 245.81-32.62 248.2-31.84 249.99-30.41 251.77-28.98 252.8-26.81 253.84-24.63 253.84-21.97ZM257.36-21.97L257.36 0 255.6 0 255.6-21.97Q255.6-24.63 254.42-27.08 253.23-29.52 251.23-31.29 249.23-33.06 246.47-34.11 243.71-35.16 240.71-35.16L240.71-35.16Q236.58-35.16 233.22-33.61 229.87-32.06 227.84-29.02 225.82-25.98 225.82-21.97L225.82-21.97 225.82 0 224.06 0 224.06-21.97Q224.06-25.34 225.38-28.17 226.69-31.01 228.95-32.91 231.21-34.81 234.25-35.86 237.29-36.91 240.71-36.91L240.71-36.91Q246.76-36.91 251.21-33.86L251.21-33.86Q255.65-36.91 261.7-36.91L261.7-36.91Q265.12-36.91 268.16-35.86 271.2-34.81 273.46-32.91 275.72-31.01 277.04-28.17 278.35-25.34 278.35-21.97L278.35-21.97 278.35 0 276.6 0 276.6-21.97Q276.6-25.95 274.57-28.99 272.54-32.03 269.19-33.59 265.83-35.16 261.7-35.16L261.7-35.16Q256.53-35.16 252.67-32.71L252.67-32.71Q253.23-32.23 253.92-31.45L253.92-31.45Q257.26-33.4 261.7-33.4L261.7-33.4Q264.41-33.4 266.81-32.62 269.2-31.84 270.98-30.41 272.76-28.98 273.8-26.81 274.84-24.63 274.84-21.97L274.84-21.97 274.84 0 273.08 0 273.08-21.97Q273.08-24.27 272.19-26.12 271.3-27.98 269.74-29.17 268.17-30.37 266.12-31.01 264.07-31.64 261.7-31.64L261.7-31.64Q257.82-31.64 254.99-30.05L254.99-30.05Q255.43-29.37 255.87-28.54L255.87-28.54Q258.26-29.88 261.7-29.88L261.7-29.88Q264.41-29.88 266.55-29.04 268.69-28.2 270-26.37 271.32-24.54 271.32-21.97L271.32-21.97 271.32 0 269.57 0 269.57-21.97Q269.57-25.07 267.38-26.6 265.19-28.13 261.7-28.13L261.7-28.13Q258.53-28.13 256.55-26.95L256.55-26.95Q256.87-26.03 257.04-25.2L257.04-25.2Q258.58-26.37 261.7-26.37L261.7-26.37Q267.81-26.37 267.81-21.97L267.81-21.97 267.81 0 266.05 0 266.05-21.97Q266.05-22.68 265.82-23.18 265.59-23.68 265.22-23.95 264.85-24.22 264.26-24.38 263.66-24.54 263.1-24.57 262.53-24.61 261.7-24.61 260.87-24.61 260.31-24.57 259.75-24.54 259.15-24.38 258.55-24.22 258.19-23.95 257.82-23.68 257.59-23.18 257.36-22.68 257.36-21.97L257.36-21.97Z" opacity="1" transform="matrix(1,0,0,1,0,0)" fill="#ffffff" class="wordmark-text-0" data-fill-palette-color="primary" id="text-0"></path></svg></g></svg></g><g transform="matrix(1,0,0,1,0,89.0493631640084)"><svg viewBox="0 0 232.209792 25.044966756665865" height="25.044966756665865" width="232.209792"><g transform="matrix(1,0,0,1,0,0)"><svg width="232.209792" viewBox="0.98 -37.99 406.51 43.85" height="25.044966756665865" data-palette-color="#ffffff"><path d="M17.77 1.46L17.77 1.46Q14.89 1.34 12.6 0.96 10.3 0.59 8.17-0.26 6.03-1.1 4.58-2.38 3.13-3.66 2.16-5.66 1.2-7.67 0.98-10.3L0.98-10.3Q0.98-10.77 1.46-10.84L1.46-10.84Q1.61-10.79 1.95-10.79L1.95-10.79Q3.98-10.79 8.11-10.89 12.23-10.99 14.26-10.99L14.26-10.99Q14.77-10.99 15.06-10.66 15.36-10.33 15.54-9.85 15.72-9.38 15.98-8.9 16.24-8.42 16.86-8.09 17.48-7.76 18.46-7.76L18.46-7.76Q19.65-7.76 20.57-8.44 21.48-9.11 21.48-10.25L21.48-10.25Q21.48-11.01 20.7-11.65 19.92-12.28 18.64-12.68 17.36-13.09 16.2-13.37 15.04-13.65 13.82-13.85 12.6-14.06 12.4-14.11L12.4-14.11Q6.47-15.72 3.87-18.12 1.27-20.51 1.27-24.66L1.27-24.66Q1.27-27.59 2.34-29.92 3.42-32.25 5.15-33.73 6.88-35.21 9.25-36.19 11.62-37.18 14.04-37.59 16.46-37.99 19.04-37.99L19.04-37.99Q25.9-37.99 29.98-35.45L29.98-35.45Q31.47-33.96 32.17-33.19 32.86-32.42 33.51-31.4 34.16-30.37 34.41-29.38 34.67-28.39 34.77-26.95L34.77-26.95 33.89-26.07Q28.88-25.88 22.66-25.88L22.66-25.88Q21.88-25.88 21.4-26.05 20.92-26.22 20.76-26.49 20.61-26.76 20.45-27.05 20.29-27.34 20.15-27.61 20.02-27.88 19.59-28.05 19.17-28.22 18.46-28.22L18.46-28.22Q18.26-28.22 17.83-28.15 17.41-28.08 16.83-27.92 16.26-27.76 15.84-27.43 15.43-27.1 15.43-26.66L15.43-26.66Q15.43-26.12 15.98-25.68 16.53-25.24 17.14-25.05 17.75-24.85 18.65-24.62 19.56-24.39 19.78-24.32L19.78-24.32Q25.1-22.97 26.12-22.66L26.12-22.66Q31.47-20.97 33.69-18.24L33.69-18.24Q35.74-15.7 35.74-11.87L35.74-11.87Q35.74-9.55 35.14-7.64 34.55-5.74 33.57-4.42 32.59-3.1 31.13-2.08 29.66-1.05 28.16-0.44 26.66 0.17 24.76 0.59 22.85 1 21.25 1.18 19.65 1.37 17.77 1.46ZM53.76-33.5L56.25-33.5Q56.42-33.54 56.8-33.58 57.18-33.62 57.27-33.64L57.27-33.64 60.18-18.77 63.99-33.69 81.15-33.69Q81.83-33.69 81.83-30.81L81.83-30.81 81.83-2.05Q81.78-1.66 81.61-1.42 81.44-1.17 81.11-1.09 80.78-1 80.6-0.99 80.42-0.98 79.98-0.98L79.98-0.98Q78.44-0.98 75.3-0.93 72.17-0.88 70.6-0.88L70.6-0.88Q69.38-1.64 69.38-6.49L69.38-6.49Q69.38-7.71 69.43-9.68 69.48-11.65 69.48-12.6L69.48-12.6 69.48-14.75Q69.48-14.92 69.46-15.3 69.43-15.67 69.43-15.87L69.43-15.87Q69.43-16.7 69.53-18.55L69.53-18.55 69.53-16.7Q69.19-15.26 68.21-12.3 67.23-9.35 66.89-7.91L66.89-7.91 65.43-1.66Q65.04-0.98 62.99-0.98L62.99-0.98Q61.98-0.98 60.39-1.03 58.79-1.07 57.96-1.07L57.96-1.07Q57.71-1.07 57.13-1.05 56.54-1.03 56.39-1.03L56.39-1.03Q55.61-1.03 55.27-1.22 54.93-1.42 54.78-2L54.78-2Q52.49-12.18 51.61-16.41L51.61-16.41 50.73-20.61Q50.39-13.5 50.39-5.57L50.39-5.57 50.39-1.27 38.86-1.27Q38.86-1.42 38.94-1.9 39.01-2.39 39.01-2.44L39.01-2.44Q38.82-7.13 38.82-14.01L38.82-14.01Q38.82-16.09 38.79-19.54 38.77-23 38.77-24.32L38.77-24.32 38.77-32.96Q38.77-33.28 38.86-33.44 38.96-33.59 39.35-33.89L39.35-33.89 41.6-33.89Q42.82-33.89 43.36-33.94L43.36-33.94Q45.82-33.94 49.35-33.72 52.88-33.5 53.76-33.5L53.76-33.5ZM69.53-18.75L69.53-18.7 69.53-18.75ZM105.37-6.05L97.85-6.05Q97.68-5.49 97.52-4.58 97.36-3.66 97.22-3.14 97.09-2.61 96.77-2.04 96.45-1.46 95.81-1.2 95.16-0.93 94.14-0.93L94.14-0.93 83.59-0.93 83.59-1.76Q84.88-5.64 87.36-13.67 89.84-21.7 91.21-25.83L91.21-25.83 91.21-25.78Q92.04-28.15 93.65-33.2L93.65-33.2Q93.67-33.25 93.72-33.33L93.72-33.33Q93.94-33.69 94.14-33.89L94.14-33.89 107.32-33.79Q110.69-33.79 111.03-33.2L111.03-33.2 111.03-32.57Q111.08-32.35 111.57-31.45L111.57-31.45Q113.94-24.19 115.03-20.9L115.03-20.9 115.03-20.61Q115.13-19.9 115.47-18.99 115.82-18.09 116.29-17.05 116.77-16.02 116.96-15.43L116.96-15.43 117.94-11.91Q118.79-9.08 120.45-4.35L120.45-4.35 120.45-4.39 120.45-3.91Q120.53-3.56 120.82-2.98 121.11-2.39 121.19-2.15L121.19-2.15Q121.19-1.46 120.91-1.27 120.62-1.07 119.82-1.07L119.82-1.07 108.49-1.07Q108.08-1.12 107.95-1.15 107.83-1.17 107.58-1.25 107.32-1.32 107.21-1.44 107.1-1.56 107.08-1.76L107.08-1.76 106.15-5.47Q106.05-5.93 105.95-5.99 105.85-6.05 105.37-6.05L105.37-6.05ZM99.02-14.65L99.02-14.75 99.02-14.65ZM104.39-17.68L104.39-17.68Q104.24-18.36 103.96-19.89 103.68-21.41 103.41-22.55 103.14-23.68 102.83-24.66L102.83-24.66 102.83-25.83Q102.63-26.34 102.14-26.56L102.14-26.56 102.14-26.51Q101.56-26.39 100.97-23.24L100.97-23.24 100.97-22.07Q100.92-21.9 100.75-21.75 100.58-21.61 100.58-21.58L100.58-21.58Q99.78-18.02 99.26-15.82L99.26-15.82Q99.26-15.58 99.14-14.97 99.02-14.36 99.02-14.26L99.02-14.26 105.07-14.26Q105.07-14.89 104.63-16.55L104.63-16.55 104.63-17.09Q104.61-17.16 104.5-17.37 104.39-17.58 104.39-17.68ZM122.8-0.98L122.8-33.59 127.34-33.59Q129.44-33.59 134.05-33.69 138.66-33.79 140.96-33.79L140.96-33.79Q142.94-33.79 144.66-33.57 146.38-33.35 148.05-32.76 149.72-32.18 150.91-31.27 152.09-30.37 152.82-28.89 153.56-27.42 153.56-25.49L153.56-25.49Q153.56-22.83 152.31-20.95 151.07-19.07 148.48-17.77L148.48-17.77Q149.5-17.33 150.26-16.63 151.02-15.92 151.42-15.41 151.82-14.89 152.2-13.68 152.58-12.48 152.65-12.1 152.73-11.72 152.97-10.23L152.97-10.23Q153.04-9.89 153.07-9.72L153.07-9.72Q153.17-8.74 153.9-6.14 154.63-3.54 154.63-2.15L154.63-2.15Q154.63-1.27 154.09-1.27L154.09-1.27Q152.63-1.27 149.66-1.25 146.7-1.22 145.26-1.22L145.26-1.22Q144.67-1.27 143.5-1.27L143.5-1.27 141.84-1.27Q141.35-1.42 140.89-2.78 140.42-4.15 140.23-5.86L140.23-5.86 139.69-10.21Q139.54-10.74 139.46-10.97 139.37-11.21 139.15-11.54 138.93-11.87 138.55-11.99 138.18-12.11 137.59-12.11L137.59-12.11 136.47-12.11 136.47-2.34Q136.47-2.27 136.47-2.11 136.47-1.95 136.47-1.89 136.47-1.83 136.47-1.71 136.47-1.59 136.44-1.53 136.42-1.46 136.39-1.37 136.37-1.27 136.33-1.23 136.3-1.2 136.24-1.14 136.17-1.07 136.09-1.05 136-1.03 135.89-1 135.78-0.98 135.64-0.98L135.64-0.98 122.8-0.98ZM136.61-20.7L136.61-20.7Q136.66-20.65 136.76-20.5 136.86-20.34 136.96-20.24 137.05-20.14 137.15-20.12L137.15-20.12Q137.88-20.12 138.62-20.28 139.35-20.43 140.12-20.8 140.89-21.17 141.36-21.92 141.84-22.68 141.84-23.73L141.84-23.73Q141.84-26.27 136.96-26.27L136.96-26.27Q136.47-26.15 136.47-25.88L136.47-25.88 136.47-24.95Q136.47-24.24 136.54-22.83 136.61-21.41 136.61-20.7ZM154.48-24.71L154.48-24.71 154.48-33.5 182.9-33.5Q183.29-33.42 183.39-33.19 183.49-32.96 183.49-32.52L183.49-32.52 183.49-24.71Q183.44-24.12 182.8-24.12L182.8-24.12 175.87-24.12 175.87-1.66Q175.87-1.64 175.84-1.54 175.82-1.44 175.82-1.42 175.82-1.39 175.8-1.32 175.77-1.25 175.75-1.22 175.72-1.2 175.7-1.14 175.67-1.07 175.64-1.06 175.6-1.05 175.54-1.01 175.48-0.98 175.42-0.95 175.36-0.93 175.27-0.92 175.19-0.9 175.09-0.88L175.09-0.88 173.53-0.88Q170.4-0.88 170.4-1.07L170.4-1.07Q170.2-1.07 169.81-1.05 169.42-1.03 169.23-1.03L169.23-1.03 167.28-1.03Q166.71-1.03 165.68-1 164.64-0.98 164.05-0.98L164.05-0.98 162.69-0.98 161.71-1.66 161.71-6.93Q161.73-8.35 161.92-12.99 162.1-17.63 162.1-20.31L162.1-20.31 162.1-20.95Q162.1-21.14 162.12-21.56 162.15-21.97 162.15-22.17L162.15-22.17Q162.15-22.39 162.12-23.06 162.1-23.73 162.1-23.93L162.1-23.93 156-23.93Q155.46-23.93 154.97-24.11 154.48-24.29 154.48-24.71ZM183.9 5.86L183.12 5.03 185.07-4Q185.66-6.74 186.32-8.79 186.97-10.84 187.32-10.84L187.32-10.84 196.01-10.84Q196.52-10.84 196.92-10.83 197.33-10.82 197.77-10.79 198.21-10.77 198.53-10.72 198.86-10.67 199.12-10.61 199.38-10.55 199.51-10.44 199.65-10.33 199.65-10.18L199.65-10.18 194.93 5.27Q194.67 5.86 189.51 5.86L189.51 5.86 183.9 5.86ZM234.02 1.46L234.02 1.46Q231.13 1.34 228.84 0.96 226.55 0.59 224.41-0.26 222.27-1.1 220.82-2.38 219.37-3.66 218.4-5.66 217.44-7.67 217.22-10.3L217.22-10.3Q217.22-10.77 217.71-10.84L217.71-10.84Q217.85-10.79 218.2-10.79L218.2-10.79Q220.22-10.79 224.35-10.89 228.47-10.99 230.5-10.99L230.5-10.99Q231.01-10.99 231.31-10.66 231.6-10.33 231.78-9.85 231.96-9.38 232.22-8.9 232.48-8.42 233.1-8.09 233.72-7.76 234.7-7.76L234.7-7.76Q235.9-7.76 236.81-8.44 237.73-9.11 237.73-10.25L237.73-10.25Q237.73-11.01 236.95-11.65 236.16-12.28 234.88-12.68 233.6-13.09 232.44-13.37 231.28-13.65 230.06-13.85 228.84-14.06 228.64-14.11L228.64-14.11Q222.71-15.72 220.11-18.12 217.51-20.51 217.51-24.66L217.51-24.66Q217.51-27.59 218.59-29.92 219.66-32.25 221.39-33.73 223.13-35.21 225.5-36.19 227.86-37.18 230.28-37.59 232.7-37.99 235.29-37.99L235.29-37.99Q242.15-37.99 246.22-35.45L246.22-35.45Q247.71-33.96 248.41-33.19 249.1-32.42 249.75-31.4 250.4-30.37 250.65-29.38 250.91-28.39 251.01-26.95L251.01-26.95 250.13-26.07Q245.12-25.88 238.9-25.88L238.9-25.88Q238.12-25.88 237.64-26.05 237.17-26.22 237.01-26.49 236.85-26.76 236.69-27.05 236.53-27.34 236.4-27.61 236.26-27.88 235.83-28.05 235.41-28.22 234.7-28.22L234.7-28.22Q234.5-28.22 234.08-28.15 233.65-28.08 233.08-27.92 232.5-27.76 232.09-27.43 231.67-27.1 231.67-26.66L231.67-26.66Q231.67-26.12 232.22-25.68 232.77-25.24 233.38-25.05 233.99-24.85 234.89-24.62 235.8-24.39 236.02-24.32L236.02-24.32Q241.34-22.97 242.37-22.66L242.37-22.66Q247.71-20.97 249.93-18.24L249.93-18.24Q251.98-15.7 251.98-11.87L251.98-11.87Q251.98-9.55 251.39-7.64 250.79-5.74 249.81-4.42 248.84-3.1 247.37-2.08 245.91-1.05 244.4-0.44 242.9 0.17 241 0.59 239.09 1 237.49 1.18 235.9 1.37 234.02 1.46ZM267.61-0.93L254.23-0.93 254.23-33.01Q254.25-33.2 254.62-33.36 254.98-33.52 255.06-33.59L255.06-33.59 268.19-33.59 268.19-1.81Q268.07-1.29 267.96-1.11 267.85-0.93 267.61-0.93L267.61-0.93ZM288.16-33.5L290.65-33.5Q290.82-33.54 291.2-33.58 291.58-33.62 291.68-33.64L291.68-33.64 294.58-18.77 298.39-33.69 315.55-33.69Q316.24-33.69 316.24-30.81L316.24-30.81 316.24-2.05Q316.19-1.66 316.02-1.42 315.85-1.17 315.52-1.09 315.19-1 315-0.99 314.82-0.98 314.38-0.98L314.38-0.98Q312.84-0.98 309.71-0.93 306.57-0.88 305.01-0.88L305.01-0.88Q303.79-1.64 303.79-6.49L303.79-6.49Q303.79-7.71 303.83-9.68 303.88-11.65 303.88-12.6L303.88-12.6 303.88-14.75Q303.88-14.92 303.86-15.3 303.83-15.67 303.83-15.87L303.83-15.87Q303.83-16.7 303.93-18.55L303.93-18.55 303.93-16.7Q303.59-15.26 302.61-12.3 301.64-9.35 301.3-7.91L301.3-7.91 299.83-1.66Q299.44-0.98 297.39-0.98L297.39-0.98Q296.39-0.98 294.79-1.03 293.19-1.07 292.36-1.07L292.36-1.07Q292.12-1.07 291.53-1.05 290.94-1.03 290.8-1.03L290.8-1.03Q290.02-1.03 289.67-1.22 289.33-1.42 289.19-2L289.19-2Q286.89-12.18 286.01-16.41L286.01-16.41 285.13-20.61Q284.79-13.5 284.79-5.57L284.79-5.57 284.79-1.27 273.27-1.27Q273.27-1.42 273.34-1.9 273.42-2.39 273.42-2.44L273.42-2.44Q273.22-7.13 273.22-14.01L273.22-14.01Q273.22-16.09 273.2-19.54 273.17-23 273.17-24.32L273.17-24.32 273.17-32.96Q273.17-33.28 273.27-33.44 273.37-33.59 273.76-33.89L273.76-33.89 276-33.89Q277.22-33.89 277.76-33.94L277.76-33.94Q280.23-33.94 283.75-33.72 287.28-33.5 288.16-33.5L288.16-33.5ZM303.93-18.75L303.93-18.7 303.93-18.75ZM333.03-0.98L321.31-0.98 320.8-17.24Q320.8-18.92 320.85-21.04 320.9-23.17 320.97-24.88 321.04-26.59 321.11-28.76 321.17-30.93 321.17-32.71L321.17-32.71Q321.17-33.2 321.5-33.34 321.83-33.47 322.33-33.42 322.83-33.37 323.46-33.5L323.46-33.5 340.94-33.5Q342.43-33.5 343.92-33.12 345.41-32.74 346.84-31.9 348.27-31.05 349.35-29.85 350.44-28.64 351.11-26.83 351.78-25.02 351.78-22.85L351.78-22.85Q351.78-19.97 350.56-17.74 349.34-15.5 346.9-13.53L346.9-13.53Q343.9-11.96 339.67-11.72L339.67-11.72 338.89-11.72Q337.91-11.52 336.94-11.52L336.94-11.52 334.98-11.52Q334.84-11.52 334.74-11.47L334.74-11.47Q334.74-5.08 334.94-1.81L334.94-1.81Q334.81-1.32 334.41-1.15 334.01-0.98 333.03-0.98L333.03-0.98ZM333.52-19.63L333.52-19.63 333.52-19.19Q333.54-19.17 333.85-19.03 334.15-18.9 334.15-18.85L334.15-18.85 334.15-18.8Q334.11-18.8 334.11-18.9L334.11-18.9Q334.15-18.85 334.4-18.85L334.4-18.85Q336.57-18.85 338.07-19.82 339.57-20.8 339.57-22.85L339.57-22.85Q339.57-23.78 339.26-24.44 338.94-25.1 338.49-25.45 338.04-25.81 337.27-25.99 336.5-26.17 335.86-26.22 335.23-26.27 334.25-26.27L334.25-26.27Q334.23-26.25 334.06-26.1 333.89-25.95 333.81-25.88L333.81-25.88 333.81-23.34Q333.52-21 333.52-19.63ZM377.12-0.98L354.71-0.98Q354.64-1.07 354.48-1.2 354.32-1.32 354.12-1.66L354.12-1.66 354.12-12.21Q354.12-14.28 354.29-18.58 354.46-22.88 354.46-25.1L354.46-25.1Q354.46-25.59 354.37-27.17 354.27-28.76 354.27-29.69L354.27-29.69Q354.27-33.13 355.1-33.89L355.1-33.89Q360.18-33.79 362.67-33.79L362.67-33.79 365.01-33.79Q365.84-33.79 366.28-33.74L366.28-33.74Q366.33-33.79 366.53-33.79L366.53-33.79Q366.57-33.79 366.95-33.74 367.33-33.69 367.55-33.69L367.55-33.69Q368.16-33.62 368.58-32.67L368.58-32.67 368.58-32.32Q368.58-32.06 368.55-31.54 368.53-31.03 368.53-30.76L368.53-30.76 368.53-29.69Q368.5-29.57 368.22-29.26 367.94-28.96 367.94-28.76L367.94-28.76 367.94-10.94 378.29-10.94Q378.68-10.94 378.88-10.91 379.07-10.89 379.27-10.69 379.46-10.5 379.46-10.11L379.46-10.11 379.46-1.95Q379.27-0.98 377.12-0.98L377.12-0.98ZM381.66-1.81L381.66-31.54Q381.66-33.01 381.78-33.25L381.78-33.25Q382-33.59 382.49-33.59L382.49-33.59 383.08-33.59Q383.47-33.59 383.61-33.54L383.61-33.54 384.88-33.54Q387.35-33.54 392.34-33.67 397.33-33.79 399.82-33.79L399.82-33.79 406.32-33.79Q406.95-33.72 406.95-33.15L406.95-33.15 406.95-25Q406.93-24.85 406.87-24.74 406.81-24.63 406.77-24.6 406.73-24.56 406.54-24.43 406.34-24.29 406.27-24.22L406.27-24.22 394.94-24.22 394.94-21.19 396.01-21.19Q397.43-21.19 400.34-21.29 403.24-21.39 404.8-21.39L404.8-21.39Q405.49-21.39 405.73-21.12 405.98-20.85 405.98-20.36L405.98-20.36Q405.98-20.24 405.93-19.95 405.88-19.65 405.88-19.53L405.88-19.53 405.88-18.6Q405.88-18.51 405.9-18.2 405.93-17.9 405.93-17.68L405.93-17.68 405.93-16.99Q405.93-16.46 405.98-15.92 406.02-15.38 406.02-14.99L406.02-14.99 406.02-14.36Q405.9-14.06 405.83-13.96 405.76-13.87 405.59-13.87L405.59-13.87 405.59-13.92Q404.68-13.92 402.47-13.79 400.26-13.67 398.94-13.67L398.94-13.67 395.04-13.67 395.04-10.55Q395.23-10.55 395.62-10.52 396.01-10.5 396.21-10.5L396.21-10.5Q397.31-10.5 399.46-10.57 401.61-10.64 402.56-10.64L402.56-10.64 405.68-10.64Q406.95-10.64 407.29-10.35L407.29-10.35Q407.42-10.21 407.49-10.06L407.49-10.06 407.49-2.25Q407.49-1.73 407.29-1.46 407.1-1.2 406.56-1.17L406.56-1.17 382.39-1.17 381.66-1.81Z" opacity="1" transform="matrix(1,0,0,1,0,0)" fill="#ffffff" class="slogan-text-1" data-fill-palette-color="secondary" id="text-1"></path></svg></g></svg></g></svg></g></svg></g><g transform="matrix(1,0,0,1,0,6.590088496218144)"><svg viewBox="0 0 100.91415292823797 100.91415292823797" height="100.91415292823797" width="100.91415292823797"><g><svg xmlns="http://www.w3.org/2000/svg" xmlns:xlink="http://www.w3.org/1999/xlink" version="1.1" x="0" y="0" viewBox="5 5 90 90" enable-background="new 0 0 100 100" xml:space="preserve" height="100.91415292823797" width="100.91415292823797" class="icon-icon-0" data-fill-palette-color="accent" id="icon-0"><path d="M50 5C25.147 5 5 25.146 5 50c0 24.854 20.147 45 45 45 24.854 0 45-20.146 45-45C95 25.146 74.854 5 50 5zM71.229 48.526L43.645 78.073C42.451 79.354 41.496 80 40.802 80c-0.315 0-0.575-0.128-0.755-0.371-0.419-0.572-0.354-1.759 0.198-3.531l6.073-19.488c0.115-0.365 0.078-0.705-0.104-0.951-0.182-0.251-0.494-0.387-0.877-0.387H30.42c-1.318 0-2.223-0.408-2.545-1.151-0.322-0.738-0.004-1.679 0.895-2.646l27.583-29.548c1.195-1.28 2.15-1.927 2.845-1.927 0.313 0 0.575 0.128 0.756 0.371 0.419 0.572 0.353 1.759-0.201 3.532l-6.071 19.49c-0.113 0.369-0.08 0.704 0.106 0.955 0.183 0.246 0.491 0.382 0.877 0.382H69.58c1.32 0 2.223 0.408 2.547 1.151C72.447 46.621 72.131 47.56 71.229 48.526z" fill="#b2fcfb" data-fill-palette-color="accent"></path></svg></g></svg></g></svg></g><defs></defs></svg><rect width="395.52" height="87.7010853598085" fill="none" stroke="none" visibility="hidden"></rect></g></svg></g></svg>