<svg xmlns="http://www.w3.org/2000/svg" version="1.1" xmlns:xlink="http://www.w3.org/1999/xlink" xmlns:svgjs="http://svgjs.dev/svgjs" width="128" height="128" viewBox="0 0 128 128"><g transform="matrix(0.8046875,0,0,0.8046875,12.760752631578946,12.760752631578946)"><svg viewBox="0 0 95 95" data-background-color="#444444" preserveAspectRatio="xMidYMid meet" height="128" width="128" xmlns="http://www.w3.org/2000/svg" xmlns:xlink="http://www.w3.org/1999/xlink"><g id="tight-bounds" transform="matrix(1,0,0,1,-0.24049999999999727,-0.24049999999999727)"><svg viewBox="0 0 95.481 95.481" height="95.481" width="95.481"><g><svg viewBox="0 0 95.481 95.481" height="95.481" width="95.481"><g><svg viewBox="0 0 95.481 95.481" height="95.481" width="95.481"><g id="textblocktransform"><svg viewBox="0 0 95.481 95.481" height="95.481" width="95.481" id="textblock"><g><svg viewBox="0 0 95.481 95.481" height="95.481" width="95.481"><g><svg viewBox="0 0 95.481 95.481" height="95.481" width="95.481"><g><svg xmlns="http://www.w3.org/2000/svg" xmlns:xlink="http://www.w3.org/1999/xlink" version="1.1" x="0" y="0" viewBox="5 5 90 90" enable-background="new 0 0 100 100" xml:space="preserve" height="95.481" width="95.481" class="icon-icon-0" data-fill-palette-color="accent" id="icon-0"><path d="M50 5C25.147 5 5 25.146 5 50c0 24.854 20.147 45 45 45 24.854 0 45-20.146 45-45C95 25.146 74.854 5 50 5zM71.229 48.526L43.645 78.073C42.451 79.354 41.496 80 40.802 80c-0.315 0-0.575-0.128-0.755-0.371-0.419-0.572-0.354-1.759 0.198-3.531l6.073-19.488c0.115-0.365 0.078-0.705-0.104-0.951-0.182-0.251-0.494-0.387-0.877-0.387H30.42c-1.318 0-2.223-0.408-2.545-1.151-0.322-0.738-0.004-1.679 0.895-2.646l27.583-29.548c1.195-1.28 2.15-1.927 2.845-1.927 0.313 0 0.575 0.128 0.756 0.371 0.419 0.572 0.353 1.759-0.201 3.532l-6.071 19.49c-0.113 0.369-0.08 0.704 0.106 0.955 0.183 0.246 0.491 0.382 0.877 0.382H69.58c1.32 0 2.223 0.408 2.547 1.151C72.447 46.621 72.131 47.56 71.229 48.526z" fill="#00d1cd" data-fill-palette-color="accent"></path></svg></g></svg></g></svg></g></svg></g></svg></g><g></g></svg></g><defs></defs></svg><rect width="95.481" height="95.481" fill="none" stroke="none" visibility="hidden"></rect></g></svg></g></svg>