<svg xmlns="http://www.w3.org/2000/svg" version="1.1" xmlns:xlink="http://www.w3.org/1999/xlink" xmlns:svgjs="http://svgjs.dev/svgjs" width="2000" height="2533" viewBox="0 0 2000 2533"><g transform="matrix(1,0,0,1,0.5418430457444856,1.0255060728743501)"><svg viewBox="0 0 195 247" data-background-color="#444444" preserveAspectRatio="xMidYMid meet" height="2533" width="2000" xmlns="http://www.w3.org/2000/svg" xmlns:xlink="http://www.w3.org/1999/xlink"><g id="tight-bounds" transform="matrix(1,0,0,1,-0.05282969696008877,-0.09999999999999432)"><svg viewBox="0 0 195.1056593939202 247.2" height="247.2" width="195.1056593939202"><g><svg viewBox="0 0 397.4975999999999 503.63176047912197" height="247.2" width="195.1056593939202"><g transform="matrix(1,0,0,1,0,372.33579966307764)"><svg viewBox="0 0 397.4975999999999 131.29596081604433" height="131.29596081604433" width="397.4975999999999"><g id="textblocktransform"><svg viewBox="0 0 397.4975999999999 131.29596081604433" height="131.29596081604433" width="397.4975999999999" id="textblock"><g><rect width="397.4975999999999" height="6.164792515775696" x="0" y="75.62238051184771" fill="#ffffff" opacity="1" stroke-width="0" stroke="transparent" fill-opacity="1" class="rect-qz-0" data-fill-palette-color="primary" rx="1%" id="qz-0" data-palette-color="#ffffff"></rect></g><g transform="matrix(1,0,0,1,0.9887999999999693,0)"><svg viewBox="0 0 395.52 68.36019037546272" height="68.36019037546272" width="395.52"><g transform="matrix(1,0,0,1,0,0)"><svg width="395.52" viewBox="1.37 -42.19 276.98 47.879999999999995" height="68.36019037546272" data-palette-color="#ffffff"><path d="M23.34-15.58L25.61-11.94 23.8-11.5 21.85-14.65 23.34-15.58ZM34.47 5.69L31.69 1.17 33.33 0.46 35.96 4.74 34.47 5.69ZM26.37-17.41L28.74-13.57 27.27-12.65 24.88-16.48 26.37-17.41ZM37.43 3.81L34.89-0.34 36.38-1.27 38.92 2.86 37.43 3.81ZM29.35-19.29L31.15-16.36 30.08-14.75 27.88-18.29 29.35-19.29ZM40.41 1.9L37.82-2.27 39.16-3.47 41.89 0.95 40.41 1.9ZM16.5-27.05Q13.67-24.22 13.67-20.21 13.67-16.21 16.5-13.38 19.34-10.55 23.34-10.55 27.34-10.55 30.18-13.38 33.01-16.21 33.01-20.21 33.01-24.22 30.18-27.05 27.34-29.88 23.34-29.88 19.34-29.88 16.5-27.05ZM12.82-15.78Q11.91-17.9 11.91-20.21 11.91-22.53 12.82-24.65 13.72-26.76 15.26-28.3 16.8-29.83 18.91-30.74 21.02-31.64 23.34-31.64 25.66-31.64 27.77-30.74 29.88-29.83 31.42-28.3 32.96-26.76 33.86-24.65 34.77-22.53 34.77-20.21 34.77-17.9 33.86-15.78 32.96-13.67 31.42-12.13 29.88-10.6 27.77-9.69 25.66-8.79 23.34-8.79 21.02-8.79 18.91-9.69 16.8-10.6 15.26-12.13 13.72-13.67 12.82-15.78ZM11.93-26.83Q10.16-23.8 10.16-20.21 10.16-16.63 11.93-13.6 13.7-10.57 16.72-8.8 19.75-7.03 23.34-7.03 26.93-7.03 29.96-8.8 32.98-10.57 34.75-13.6 36.52-16.63 36.52-20.21 36.52-23.8 34.75-26.83 32.98-29.86 29.96-31.63 26.93-33.4 23.34-33.4 19.75-33.4 16.72-31.63 13.7-29.86 11.93-26.83ZM10.4-12.72Q8.4-16.16 8.4-20.21 8.4-24.27 10.4-27.71 12.4-31.15 15.84-33.15 19.29-35.16 23.34-35.16 27.39-35.16 30.83-33.15 34.28-31.15 36.28-27.71 38.28-24.27 38.28-20.21 38.28-16.16 36.28-12.72 34.28-9.28 30.83-7.28 27.39-5.27 23.34-5.27 19.29-5.27 15.84-7.28 12.4-9.28 10.4-12.72ZM7.96-26.71Q6.64-23.61 6.64-20.21 6.64-16.82 7.96-13.72 9.28-10.62 11.51-8.39 13.75-6.15 16.85-4.83 19.95-3.52 23.34-3.52 26.73-3.52 29.83-4.83 32.93-6.15 35.17-8.39 37.4-10.62 38.72-13.72 40.04-16.82 40.04-20.21 40.04-23.61 38.72-26.71 37.4-29.81 35.17-32.04 32.93-34.28 29.83-35.6 26.73-36.91 23.34-36.91 19.95-36.91 16.85-35.6 13.75-34.28 11.51-32.04 9.28-29.81 7.96-26.71ZM7.36-10.96Q4.88-15.21 4.88-20.21 4.88-25.22 7.36-29.47 9.84-33.72 14.09-36.19 18.33-38.67 23.34-38.67 28.34-38.67 32.59-36.19 36.84-33.72 39.32-29.47 41.8-25.22 41.8-20.21 41.8-15.21 39.32-10.96 36.84-6.71 32.59-4.24 28.34-1.76 23.34-1.76 18.33-1.76 14.09-4.24 9.84-6.71 7.36-10.96ZM4.72-28.06Q3.13-24.32 3.13-20.21 3.13-16.11 4.72-12.37 6.32-8.62 9.03-5.91 11.74-3.2 15.49-1.6 19.24 0 23.34 0 27.44 0 31.19-1.6 34.94-3.2 37.65-5.91 40.36-8.62 41.96-12.37 43.55-16.11 43.55-20.21 43.55-24.32 41.96-28.06 40.36-31.81 37.65-34.52 34.94-37.23 31.19-38.83 27.44-40.43 23.34-40.43 19.24-40.43 15.49-38.83 11.74-37.23 9.03-34.52 6.32-31.81 4.72-28.06ZM3.11-11.68Q1.37-15.75 1.37-20.21 1.37-24.68 3.11-28.75 4.86-32.81 7.8-35.75 10.74-38.7 14.81-40.44 18.87-42.19 23.34-42.19 27.81-42.19 31.87-40.44 35.94-38.7 38.88-35.75 41.82-32.81 43.57-28.75 45.31-24.68 45.31-20.21 45.31-15.75 43.57-11.68 41.82-7.62 38.88-4.68 35.94-1.73 31.87 0.01 27.81 1.76 23.34 1.76 18.87 1.76 14.81 0.01 10.74-1.73 7.8-4.68 4.86-7.62 3.11-11.68ZM72.24-15.58L72.24-15.58 72.24-35.16 74-35.16 74-15.58Q74-12.79 71.86-10.79 69.72-8.79 66.72-8.79 63.72-8.79 61.58-10.79 59.45-12.79 59.45-15.58L59.45-15.58 59.45-35.16 61.2-35.16 61.2-15.58Q61.2-13.5 62.83-12.02 64.45-10.55 66.72-10.55 68.99-10.55 70.62-12.02 72.24-13.5 72.24-15.58ZM75.75-15.58L75.75-15.58 75.75-35.16 77.51-35.16 77.51-15.58Q77.51-11.3 74.34-8.29 71.16-5.27 66.72-5.27 62.28-5.27 59.1-8.29 55.93-11.3 55.93-15.58L55.93-15.58 55.93-35.16 57.69-35.16 57.69-15.58Q57.69-12.04 60.34-9.53 62.99-7.03 66.72-7.03L66.72-7.03Q70.43-7.03 73.09-9.53 75.75-12.04 75.75-15.58ZM79.27-15.58L79.27-15.58 79.27-35.16 81.03-35.16 81.03-15.58Q81.03-11.84 79.1-8.65 77.17-5.47 73.87-3.61 70.58-1.76 66.72-1.76 62.86-1.76 59.57-3.61 56.27-5.47 54.34-8.65 52.41-11.84 52.41-15.58L52.41-15.58 52.41-35.16 54.17-35.16 54.17-15.58Q54.17-12.33 55.86-9.55 57.54-6.76 60.43-5.14 63.33-3.52 66.72-3.52 70.11-3.52 73.01-5.14 75.9-6.76 77.59-9.55 79.27-12.33 79.27-15.58ZM82.79-15.58L82.79-15.58 82.79-35.16 84.54-35.16 84.54-15.58Q84.54-12.06 83.13-8.85 81.71-5.64 79.32-3.32 76.93-1 73.63 0.38 70.33 1.76 66.72 1.76 63.11 1.76 59.81 0.38 56.52-1 54.12-3.32 51.73-5.64 50.31-8.85 48.9-12.06 48.9-15.58L48.9-15.58 48.9-35.16 50.66-35.16 50.66-15.58Q50.66-11.38 52.82-7.79 54.98-4.2 58.68-2.1 62.38 0 66.72 0 71.07 0 74.77-2.1 78.46-4.2 80.62-7.79 82.79-11.38 82.79-15.58ZM99.51 0L99.51-35.16 101.26-35.16 101.26 0 99.51 0ZM95.99 0L95.99-35.16 97.75-35.16 97.75 0 95.99 0ZM92.48 0L92.48-35.16 94.23-35.16 94.23 0 92.48 0ZM88.96 0L88.96-35.16 90.72-35.16 90.72 0 88.96 0ZM133-17.43L142.79-35.16 140.84-35.16 131.05-17.43 140.69 0 142.64 0 133-17.43ZM129.07-17.43L138.86-35.16 136.91-35.16 127.12-17.43 136.76 0 138.71 0 129.07-17.43ZM125.14-17.43L134.93-35.16 132.98-35.16 123.19-17.43 132.83 0 134.78 0 125.14-17.43ZM121.18-17.43L131-35.16 129.05-35.16 119.23-17.43 128.9 0 130.85 0 121.18-17.43ZM116.4 0L116.4-35.16 118.16-35.16 118.16 0 116.4 0ZM112.88 0L112.88-35.16 114.64-35.16 114.64 0 112.88 0ZM109.37 0L109.37-35.16 111.13-35.16 111.13 0 109.37 0ZM105.85 0L105.85-35.16 107.61-35.16 107.61 0 105.85 0ZM171.23-23.05L171.23-23.05 169.81-21.97Q167.69-24.61 164.35-24.61L164.35-24.61Q161.44-24.61 159.38-22.55 157.31-20.48 157.31-17.58 157.31-14.67 159.38-12.61 161.44-10.55 164.35-10.55L164.35-10.55Q165.98-10.55 167.41-11.25 168.84-11.96 169.84-13.21L169.84-13.21 171.21-12.06Q169.99-10.52 168.18-9.66 166.37-8.79 164.35-8.79L164.35-8.79Q160.71-8.79 158.13-11.36 155.56-13.94 155.56-17.58 155.56-21.22 158.13-23.79 160.71-26.37 164.35-26.37L164.35-26.37Q166.4-26.37 168.2-25.48 170.01-24.58 171.23-23.05ZM173.96-25.24L173.96-25.24 172.57-24.17Q171.11-26.03 168.95-27.08 166.79-28.13 164.35-28.13L164.35-28.13Q159.98-28.13 156.89-25.02 153.8-21.92 153.8-17.58 153.8-13.23 156.89-10.13 159.98-7.03 164.35-7.03L164.35-7.03Q166.79-7.03 168.96-8.09 171.13-9.16 172.6-11.01L172.6-11.01 173.94-9.89Q172.23-7.74 169.72-6.51 167.2-5.27 164.35-5.27L164.35-5.27Q161-5.27 158.17-6.92 155.34-8.57 153.69-11.4 152.04-14.23 152.04-17.58 152.04-20.92 153.69-23.75 155.34-26.59 158.17-28.23 161-29.88 164.35-29.88L164.35-29.88Q167.2-29.88 169.73-28.65 172.26-27.42 173.96-25.24ZM176.72-27.44L176.72-27.44 175.36-26.34Q173.38-28.81 170.5-30.22 167.62-31.64 164.35-31.64L164.35-31.64Q161.49-31.64 158.89-30.53 156.29-29.42 154.4-27.53 152.5-25.63 151.39-23.03 150.28-20.43 150.28-17.58 150.28-14.72 151.39-12.12 152.5-9.52 154.4-7.63 156.29-5.74 158.89-4.63 161.49-3.52 164.35-3.52L164.35-3.52Q167.62-3.52 170.5-4.93 173.38-6.35 175.36-8.81L175.36-8.81 176.67-7.67Q174.45-4.91 171.23-3.33 168.01-1.76 164.35-1.76L164.35-1.76Q161.12-1.76 158.19-3.02 155.26-4.27 153.15-6.38 151.04-8.5 149.78-11.43 148.53-14.36 148.53-17.58 148.53-20.8 149.78-23.73 151.04-26.66 153.15-28.77 155.26-30.88 158.19-32.14 161.12-33.4 164.35-33.4L164.35-33.4Q168.03-33.4 171.27-31.81 174.5-30.22 176.72-27.44ZM179.46-29.64L179.46-29.64 178.04-28.59Q175.58-31.64 172-33.4 168.42-35.16 164.35-35.16L164.35-35.16Q160.78-35.16 157.52-33.76 154.26-32.37 151.91-30.02 149.55-27.66 148.16-24.4 146.77-21.14 146.77-17.58 146.77-14.01 148.16-10.75 149.55-7.5 151.91-5.14 154.26-2.78 157.52-1.39 160.78 0 164.35 0L164.35 0Q168.42 0 172-1.76 175.58-3.52 178.04-6.57L178.04-6.57 179.43-5.49Q176.72-2.12 172.78-0.18 168.84 1.76 164.35 1.76L164.35 1.76Q160.41 1.76 156.84 0.22 153.26-1.32 150.67-3.91 148.09-6.49 146.55-10.07 145.01-13.65 145.01-17.58 145.01-21.51 146.55-25.09 148.09-28.66 150.67-31.25 153.26-33.84 156.84-35.38 160.41-36.91 164.35-36.91L164.35-36.91Q168.84-36.91 172.79-34.97 176.75-33.03 179.46-29.64ZM196.06-15.04L196.06-16.8 206.65-16.8Q208.75-16.8 210.22-18.12 211.68-19.43 211.68-21.83L211.68-21.83Q211.68-23.58 210.16-24.98 208.63-26.37 206.65-26.37L206.65-26.37 191.56-26.37 191.56 0 189.81 0 189.81-28.13 206.65-28.13Q209.36-28.13 211.4-26.22 213.44-24.32 213.44-21.83L213.44-21.83Q213.44-18.73 211.46-16.88 209.48-15.04 206.65-15.04L206.65-15.04 196.06-15.04ZM196.06-11.52L196.06-13.28 206.65-13.28Q210.17-13.28 212.68-15.67 215.2-18.07 215.2-21.83L215.2-21.83Q215.2-25.02 212.63-27.45 210.07-29.88 206.65-29.88L206.65-29.88 188.05-29.88 188.05 0 186.29 0 186.29-31.64 206.65-31.64Q210.8-31.64 213.88-28.7 216.96-25.76 216.96-21.83L216.96-21.83Q216.96-17.43 213.92-14.48 210.88-11.52 206.65-11.52L206.65-11.52 196.06-11.52ZM196.06-8.01L196.06-9.77 206.65-9.77Q209.9-9.77 212.66-11.33 215.42-12.89 217.07-15.67 218.71-18.46 218.71-21.83L218.71-21.83Q218.71-24.88 217.08-27.55 215.44-30.22 212.65-31.81 209.85-33.4 206.65-33.4L206.65-33.4 184.53-33.4 184.53 0 182.78 0 182.78-35.16 206.65-35.16Q209.41-35.16 211.96-34.07 214.51-32.98 216.37-31.19 218.22-29.39 219.35-26.93 220.47-24.46 220.47-21.83L220.47-21.83Q220.47-17.55 218.52-14.37 216.56-11.18 213.27-9.52L213.27-9.52 216.96 0 215.08 0 211.58-8.81Q210.93-8.59 210.05-8.37L210.05-8.37 213.34 0 211.46 0 208.24-8.08Q207.48-8.01 206.65-8.01L206.65-8.01 209.75 0 207.9 0 204.82-8.01 203.23-8.01 206.19 0 204.33 0 201.35-8.01 196.06-8.01ZM195.08-22.85L195.08 0 193.32 0 193.32-24.61 206.65-24.61Q208.02-24.61 208.97-23.79 209.92-22.97 209.92-21.83L209.92-21.83Q209.92-18.55 206.65-18.55L206.65-18.55 196.06-18.55 196.06-20.31 206.65-20.31Q208.17-20.31 208.17-21.83L208.17-21.83Q208.17-22.24 207.71-22.55 207.26-22.85 206.65-22.85L206.65-22.85 195.08-22.85ZM246.81-21.97L246.81-21.97 246.81 0 245.05 0 245.05-21.97Q245.05-22.68 244.82-23.18 244.59-23.68 244.22-23.95 243.86-24.22 243.26-24.38 242.66-24.54 242.1-24.57 241.54-24.61 240.71-24.61 239.88-24.61 239.32-24.57 238.75-24.54 238.16-24.38 237.56-24.22 237.19-23.95 236.83-23.68 236.59-23.18 236.36-22.68 236.36-21.97L236.36-21.97 236.36 0 234.6 0 234.6-21.97Q234.6-26.37 240.71-26.37 246.81-26.37 246.81-21.97ZM250.33-21.97L250.33-21.97 250.33 0 248.57 0 248.57-21.97Q248.57-25.07 246.38-26.6 244.2-28.13 240.71-28.13 237.22-28.13 235.03-26.6 232.85-25.07 232.85-21.97L232.85-21.97 232.85 0 231.09 0 231.09-21.97Q231.09-24.54 232.41-26.37 233.73-28.2 235.86-29.04 238-29.88 240.71-29.88 243.42-29.88 245.55-29.04 247.69-28.2 249.01-26.37 250.33-24.54 250.33-21.97ZM253.84-21.97L253.84-21.97 253.84 0 252.08 0 252.08-21.97Q252.08-24.27 251.19-26.12 250.3-27.98 248.74-29.17 247.18-30.37 245.13-31.01 243.08-31.64 240.71-31.64 238.34-31.64 236.29-31.01 234.24-30.37 232.68-29.17 231.11-27.98 230.22-26.12 229.33-24.27 229.33-21.97L229.33-21.97 229.33 0 227.57 0 227.57-21.97Q227.57-24.63 228.61-26.81 229.65-28.98 231.43-30.41 233.21-31.84 235.61-32.62 238-33.4 240.71-33.4 243.42-33.4 245.81-32.62 248.2-31.84 249.99-30.41 251.77-28.98 252.8-26.81 253.84-24.63 253.84-21.97ZM257.36-21.97L257.36 0 255.6 0 255.6-21.97Q255.6-24.63 254.42-27.08 253.23-29.52 251.23-31.29 249.23-33.06 246.47-34.11 243.71-35.16 240.71-35.16L240.71-35.16Q236.58-35.16 233.22-33.61 229.87-32.06 227.84-29.02 225.82-25.98 225.82-21.97L225.82-21.97 225.82 0 224.06 0 224.06-21.97Q224.06-25.34 225.38-28.17 226.69-31.01 228.95-32.91 231.21-34.81 234.25-35.86 237.29-36.91 240.71-36.91L240.71-36.91Q246.76-36.91 251.21-33.86L251.21-33.86Q255.65-36.91 261.7-36.91L261.7-36.91Q265.12-36.91 268.16-35.86 271.2-34.81 273.46-32.91 275.72-31.01 277.04-28.17 278.35-25.34 278.35-21.97L278.35-21.97 278.35 0 276.6 0 276.6-21.97Q276.6-25.95 274.57-28.99 272.54-32.03 269.19-33.59 265.83-35.16 261.7-35.16L261.7-35.16Q256.53-35.16 252.67-32.71L252.67-32.71Q253.23-32.23 253.92-31.45L253.92-31.45Q257.26-33.4 261.7-33.4L261.7-33.4Q264.41-33.4 266.81-32.62 269.2-31.84 270.98-30.41 272.76-28.98 273.8-26.81 274.84-24.63 274.84-21.97L274.84-21.97 274.84 0 273.08 0 273.08-21.97Q273.08-24.27 272.19-26.12 271.3-27.98 269.74-29.17 268.17-30.37 266.12-31.01 264.07-31.64 261.7-31.64L261.7-31.64Q257.82-31.64 254.99-30.05L254.99-30.05Q255.43-29.37 255.87-28.54L255.87-28.54Q258.26-29.88 261.7-29.88L261.7-29.88Q264.41-29.88 266.55-29.04 268.69-28.2 270-26.37 271.32-24.54 271.32-21.97L271.32-21.97 271.32 0 269.57 0 269.57-21.97Q269.57-25.07 267.38-26.6 265.19-28.13 261.7-28.13L261.7-28.13Q258.53-28.13 256.55-26.95L256.55-26.95Q256.87-26.03 257.04-25.2L257.04-25.2Q258.58-26.37 261.7-26.37L261.7-26.37Q267.81-26.37 267.81-21.97L267.81-21.97 267.81 0 266.05 0 266.05-21.97Q266.05-22.68 265.82-23.18 265.59-23.68 265.22-23.95 264.85-24.22 264.26-24.38 263.66-24.54 263.1-24.57 262.53-24.61 261.7-24.61 260.87-24.61 260.31-24.57 259.75-24.54 259.15-24.38 258.55-24.22 258.19-23.95 257.82-23.68 257.59-23.18 257.36-22.68 257.36-21.97L257.36-21.97Z" opacity="1" transform="matrix(1,0,0,1,0,0)" fill="#ffffff" class="wordmark-text-0" data-fill-palette-color="primary" id="text-0"></path></svg></g></svg></g><g transform="matrix(1,0,0,1,0,89.0493631640084)"><svg viewBox="0 0 395.52 42.24659765203596" height="42.24659765203596" width="395.52"><g transform="matrix(1,0,0,1,0,0)"><svg width="395.52" viewBox="0.98 -37.99 410.51 43.85" height="42.24659765203596" data-palette-color="#00d1cd"><path d="M17.77 1.46L17.77 1.46Q14.89 1.34 12.6 0.96 10.3 0.59 8.17-0.26 6.03-1.1 4.58-2.38 3.13-3.66 2.16-5.66 1.2-7.67 0.98-10.3L0.98-10.3Q0.98-10.77 1.46-10.84L1.46-10.84Q1.61-10.79 1.95-10.79L1.95-10.79Q3.98-10.79 8.11-10.89 12.23-10.99 14.26-10.99L14.26-10.99Q14.77-10.99 15.06-10.66 15.36-10.33 15.54-9.85 15.72-9.38 15.98-8.9 16.24-8.42 16.86-8.09 17.48-7.76 18.46-7.76L18.46-7.76Q19.65-7.76 20.57-8.44 21.48-9.11 21.48-10.25L21.48-10.25Q21.48-11.01 20.7-11.65 19.92-12.28 18.64-12.68 17.36-13.09 16.2-13.37 15.04-13.65 13.82-13.85 12.6-14.06 12.4-14.11L12.4-14.11Q6.47-15.72 3.87-18.12 1.27-20.51 1.27-24.66L1.27-24.66Q1.27-27.59 2.34-29.92 3.42-32.25 5.15-33.73 6.88-35.21 9.25-36.19 11.62-37.18 14.04-37.59 16.46-37.99 19.04-37.99L19.04-37.99Q25.9-37.99 29.98-35.45L29.98-35.45Q31.47-33.96 32.17-33.19 32.86-32.42 33.51-31.4 34.16-30.37 34.41-29.38 34.67-28.39 34.77-26.95L34.77-26.95 33.89-26.07Q28.88-25.88 22.66-25.88L22.66-25.88Q21.88-25.88 21.4-26.05 20.92-26.22 20.76-26.49 20.61-26.76 20.45-27.05 20.29-27.34 20.15-27.61 20.02-27.88 19.59-28.05 19.17-28.22 18.46-28.22L18.46-28.22Q18.26-28.22 17.83-28.15 17.41-28.08 16.83-27.92 16.26-27.76 15.84-27.43 15.43-27.1 15.43-26.66L15.43-26.66Q15.43-26.12 15.98-25.68 16.53-25.24 17.14-25.05 17.75-24.85 18.65-24.62 19.56-24.39 19.78-24.32L19.78-24.32Q25.1-22.97 26.12-22.66L26.12-22.66Q31.47-20.97 33.69-18.24L33.69-18.24Q35.74-15.7 35.74-11.87L35.74-11.87Q35.74-9.55 35.14-7.64 34.55-5.74 33.57-4.42 32.59-3.1 31.13-2.08 29.66-1.05 28.16-0.44 26.66 0.17 24.76 0.59 22.85 1 21.25 1.18 19.65 1.37 17.77 1.46ZM54.09-33.5L56.58-33.5Q56.75-33.54 57.13-33.58 57.51-33.62 57.61-33.64L57.61-33.64 60.51-18.77 64.32-33.69 81.48-33.69Q82.17-33.69 82.17-30.81L82.17-30.81 82.17-2.05Q82.12-1.66 81.95-1.42 81.78-1.17 81.45-1.09 81.12-1 80.93-0.99 80.75-0.98 80.31-0.98L80.31-0.98Q78.77-0.98 75.64-0.93 72.5-0.88 70.94-0.88L70.94-0.88Q69.72-1.64 69.72-6.49L69.72-6.49Q69.72-7.71 69.76-9.68 69.81-11.65 69.81-12.6L69.81-12.6 69.81-14.75Q69.81-14.92 69.79-15.3 69.76-15.67 69.76-15.87L69.76-15.87Q69.76-16.7 69.86-18.55L69.86-18.55 69.86-16.7Q69.52-15.26 68.54-12.3 67.57-9.35 67.23-7.91L67.23-7.91 65.76-1.66Q65.37-0.98 63.32-0.98L63.32-0.98Q62.32-0.98 60.72-1.03 59.12-1.07 58.29-1.07L58.29-1.07Q58.05-1.07 57.46-1.05 56.87-1.03 56.73-1.03L56.73-1.03Q55.95-1.03 55.6-1.22 55.26-1.42 55.12-2L55.12-2Q52.82-12.18 51.94-16.41L51.94-16.41 51.06-20.61Q50.72-13.5 50.72-5.57L50.72-5.57 50.72-1.27 39.2-1.27Q39.2-1.42 39.27-1.9 39.34-2.39 39.34-2.44L39.34-2.44Q39.15-7.13 39.15-14.01L39.15-14.01Q39.15-16.09 39.12-19.54 39.1-23 39.1-24.32L39.1-24.32 39.1-32.96Q39.1-33.28 39.2-33.44 39.3-33.59 39.69-33.89L39.69-33.89 41.93-33.89Q43.15-33.89 43.69-33.94L43.69-33.94Q46.16-33.94 49.68-33.72 53.21-33.5 54.09-33.5L54.09-33.5ZM69.86-18.75L69.86-18.7 69.86-18.75ZM106.03-6.05L98.51-6.05Q98.34-5.49 98.18-4.58 98.02-3.66 97.89-3.14 97.76-2.61 97.44-2.04 97.12-1.46 96.47-1.2 95.83-0.93 94.8-0.93L94.8-0.93 84.25-0.93 84.25-1.76Q85.55-5.64 88.03-13.67 90.5-21.7 91.87-25.83L91.87-25.83 91.87-25.78Q92.7-28.15 94.31-33.2L94.31-33.2Q94.34-33.25 94.39-33.33L94.39-33.33Q94.61-33.69 94.8-33.89L94.8-33.89 107.99-33.79Q111.35-33.79 111.7-33.2L111.7-33.2 111.7-32.57Q111.75-32.35 112.23-31.45L112.23-31.45Q114.6-24.19 115.7-20.9L115.7-20.9 115.7-20.61Q115.8-19.9 116.14-18.99 116.48-18.09 116.96-17.05 117.43-16.02 117.63-15.43L117.63-15.43 118.61-11.91Q119.46-9.08 121.12-4.35L121.12-4.35 121.12-4.39 121.12-3.91Q121.19-3.56 121.49-2.98 121.78-2.39 121.85-2.15L121.85-2.15Q121.85-1.46 121.57-1.27 121.29-1.07 120.49-1.07L120.49-1.07 109.16-1.07Q108.74-1.12 108.62-1.15 108.5-1.17 108.24-1.25 107.99-1.32 107.88-1.44 107.77-1.56 107.74-1.76L107.74-1.76 106.81-5.47Q106.72-5.93 106.62-5.99 106.52-6.05 106.03-6.05L106.03-6.05ZM99.68-14.65L99.68-14.75 99.68-14.65ZM105.06-17.68L105.06-17.68Q104.91-18.36 104.63-19.89 104.35-21.41 104.08-22.55 103.81-23.68 103.49-24.66L103.49-24.66 103.49-25.83Q103.3-26.34 102.81-26.56L102.81-26.56 102.81-26.51Q102.22-26.39 101.64-23.24L101.64-23.24 101.64-22.07Q101.59-21.9 101.42-21.75 101.25-21.61 101.25-21.58L101.25-21.58Q100.44-18.02 99.93-15.82L99.93-15.82Q99.93-15.58 99.81-14.97 99.68-14.36 99.68-14.26L99.68-14.26 105.74-14.26Q105.74-14.89 105.3-16.55L105.3-16.55 105.3-17.09Q105.28-17.16 105.17-17.37 105.06-17.58 105.06-17.68ZM123.79-0.98L123.79-33.59 128.34-33.59Q130.43-33.59 135.05-33.69 139.66-33.79 141.96-33.79L141.96-33.79Q143.94-33.79 145.66-33.57 147.38-33.35 149.05-32.76 150.72-32.18 151.91-31.27 153.09-30.37 153.82-28.89 154.56-27.42 154.56-25.49L154.56-25.49Q154.56-22.83 153.31-20.95 152.07-19.07 149.48-17.77L149.48-17.77Q150.5-17.33 151.26-16.63 152.02-15.92 152.42-15.41 152.82-14.89 153.2-13.68 153.58-12.48 153.65-12.1 153.73-11.72 153.97-10.23L153.97-10.23Q154.04-9.89 154.07-9.72L154.07-9.72Q154.17-8.74 154.9-6.14 155.63-3.54 155.63-2.15L155.63-2.15Q155.63-1.27 155.09-1.27L155.09-1.27Q153.63-1.27 150.66-1.25 147.7-1.22 146.26-1.22L146.26-1.22Q145.67-1.27 144.5-1.27L144.5-1.27 142.84-1.27Q142.35-1.42 141.89-2.78 141.42-4.15 141.23-5.86L141.23-5.86 140.69-10.21Q140.54-10.74 140.46-10.97 140.37-11.21 140.15-11.54 139.93-11.87 139.55-11.99 139.18-12.11 138.59-12.11L138.59-12.11 137.47-12.11 137.47-2.34Q137.47-2.27 137.47-2.11 137.47-1.95 137.47-1.89 137.47-1.83 137.47-1.71 137.47-1.59 137.44-1.53 137.42-1.46 137.39-1.37 137.37-1.27 137.33-1.23 137.3-1.2 137.23-1.14 137.17-1.07 137.09-1.05 137-1.03 136.89-1 136.78-0.98 136.64-0.98L136.64-0.98 123.79-0.98ZM137.61-20.7L137.61-20.7Q137.66-20.65 137.76-20.5 137.86-20.34 137.95-20.24 138.05-20.14 138.15-20.12L138.15-20.12Q138.88-20.12 139.61-20.28 140.35-20.43 141.12-20.8 141.89-21.17 142.36-21.92 142.84-22.68 142.84-23.73L142.84-23.73Q142.84-26.27 137.95-26.27L137.95-26.27Q137.47-26.15 137.47-25.88L137.47-25.88 137.47-24.95Q137.47-24.24 137.54-22.83 137.61-21.41 137.61-20.7ZM155.81-24.71L155.81-24.71 155.81-33.5 184.23-33.5Q184.62-33.42 184.72-33.19 184.82-32.96 184.82-32.52L184.82-32.52 184.82-24.71Q184.77-24.12 184.13-24.12L184.13-24.12 177.2-24.12 177.2-1.66Q177.2-1.64 177.18-1.54 177.15-1.44 177.15-1.42 177.15-1.39 177.13-1.32 177.1-1.25 177.08-1.22 177.05-1.2 177.03-1.14 177.01-1.07 176.97-1.06 176.93-1.05 176.87-1.01 176.81-0.98 176.75-0.95 176.69-0.93 176.6-0.92 176.52-0.9 176.42-0.88L176.42-0.88 174.86-0.88Q171.73-0.88 171.73-1.07L171.73-1.07Q171.54-1.07 171.15-1.05 170.76-1.03 170.56-1.03L170.56-1.03 168.61-1.03Q168.05-1.03 167.01-1 165.97-0.98 165.38-0.98L165.38-0.98 164.02-0.98 163.04-1.66 163.04-6.93Q163.07-8.35 163.25-12.99 163.43-17.63 163.43-20.31L163.43-20.31 163.43-20.95Q163.43-21.14 163.46-21.56 163.48-21.97 163.48-22.17L163.48-22.17Q163.48-22.39 163.46-23.06 163.43-23.73 163.43-23.93L163.43-23.93 157.33-23.93Q156.79-23.93 156.3-24.11 155.81-24.29 155.81-24.71ZM185.56 5.86L184.78 5.03 186.74-4Q187.32-6.74 187.98-8.79 188.64-10.84 188.98-10.84L188.98-10.84 197.67-10.84Q198.19-10.84 198.59-10.83 198.99-10.82 199.43-10.79 199.87-10.77 200.2-10.72 200.53-10.67 200.79-10.61 201.04-10.55 201.18-10.44 201.31-10.33 201.31-10.18L201.31-10.18 196.6 5.27Q196.33 5.86 191.18 5.86L191.18 5.86 185.56 5.86ZM236.35 1.46L236.35 1.46Q233.47 1.34 231.17 0.96 228.88 0.59 226.74-0.26 224.6-1.1 223.15-2.38 221.7-3.66 220.73-5.66 219.77-7.67 219.55-10.3L219.55-10.3Q219.55-10.77 220.04-10.84L220.04-10.84Q220.18-10.79 220.53-10.79L220.53-10.79Q222.55-10.79 226.68-10.89 230.8-10.99 232.83-10.99L232.83-10.99Q233.34-10.99 233.64-10.66 233.93-10.33 234.11-9.85 234.3-9.38 234.55-8.9 234.81-8.42 235.43-8.09 236.05-7.76 237.03-7.76L237.03-7.76Q238.23-7.76 239.14-8.44 240.06-9.11 240.06-10.25L240.06-10.25Q240.06-11.01 239.28-11.65 238.5-12.28 237.21-12.68 235.93-13.09 234.77-13.37 233.61-13.65 232.39-13.85 231.17-14.06 230.98-14.11L230.98-14.11Q225.04-15.72 222.44-18.12 219.84-20.51 219.84-24.66L219.84-24.66Q219.84-27.59 220.92-29.92 221.99-32.25 223.72-33.73 225.46-35.21 227.83-36.19 230.19-37.18 232.61-37.59 235.03-37.99 237.62-37.99L237.62-37.99Q244.48-37.99 248.55-35.45L248.55-35.45Q250.04-33.96 250.74-33.19 251.43-32.42 252.08-31.4 252.73-30.37 252.99-29.38 253.24-28.39 253.34-26.95L253.34-26.95 252.46-26.07Q247.46-25.88 241.23-25.88L241.23-25.88Q240.45-25.88 239.97-26.05 239.5-26.22 239.34-26.49 239.18-26.76 239.02-27.05 238.86-27.34 238.73-27.61 238.59-27.88 238.17-28.05 237.74-28.22 237.03-28.22L237.03-28.22Q236.84-28.22 236.41-28.15 235.98-28.08 235.41-27.92 234.83-27.76 234.42-27.43 234-27.1 234-26.66L234-26.66Q234-26.12 234.55-25.68 235.1-25.24 235.71-25.05 236.32-24.85 237.23-24.62 238.13-24.39 238.35-24.32L238.35-24.32Q243.67-22.97 244.7-22.66L244.7-22.66Q250.04-20.97 252.26-18.24L252.26-18.24Q254.32-15.7 254.32-11.87L254.32-11.87Q254.32-9.55 253.72-7.64 253.12-5.74 252.14-4.42 251.17-3.1 249.7-2.08 248.24-1.05 246.74-0.44 245.23 0.17 243.33 0.59 241.43 1 239.83 1.18 238.23 1.37 236.35 1.46ZM270.27-0.93L256.89-0.93 256.89-33.01Q256.92-33.2 257.28-33.36 257.65-33.52 257.72-33.59L257.72-33.59 270.86-33.59 270.86-1.81Q270.74-1.29 270.63-1.11 270.52-0.93 270.27-0.93L270.27-0.93ZM291.16-33.5L293.65-33.5Q293.82-33.54 294.2-33.58 294.58-33.62 294.67-33.64L294.67-33.64 297.58-18.77 301.39-33.69 318.55-33.69Q319.23-33.69 319.23-30.81L319.23-30.81 319.23-2.05Q319.19-1.66 319.01-1.42 318.84-1.17 318.51-1.09 318.18-1 318-0.99 317.82-0.98 317.38-0.98L317.38-0.98Q315.84-0.98 312.7-0.93 309.57-0.88 308-0.88L308-0.88Q306.78-1.64 306.78-6.49L306.78-6.49Q306.78-7.71 306.83-9.68 306.88-11.65 306.88-12.6L306.88-12.6 306.88-14.75Q306.88-14.92 306.86-15.3 306.83-15.67 306.83-15.87L306.83-15.87Q306.83-16.7 306.93-18.55L306.93-18.55 306.93-16.7Q306.59-15.26 305.61-12.3 304.63-9.35 304.29-7.91L304.29-7.91 302.83-1.66Q302.44-0.98 300.39-0.98L300.39-0.98Q299.39-0.98 297.79-1.03 296.19-1.07 295.36-1.07L295.36-1.07Q295.11-1.07 294.53-1.05 293.94-1.03 293.8-1.03L293.8-1.03Q293.01-1.03 292.67-1.22 292.33-1.42 292.18-2L292.18-2Q289.89-12.18 289.01-16.41L289.01-16.41 288.13-20.61Q287.79-13.5 287.79-5.57L287.79-5.57 287.79-1.27 276.27-1.27Q276.27-1.42 276.34-1.9 276.41-2.39 276.41-2.44L276.41-2.44Q276.22-7.13 276.22-14.01L276.22-14.01Q276.22-16.09 276.19-19.54 276.17-23 276.17-24.32L276.17-24.32 276.17-32.96Q276.17-33.28 276.27-33.44 276.36-33.59 276.75-33.89L276.75-33.89 279-33.89Q280.22-33.89 280.76-33.94L280.76-33.94Q283.22-33.94 286.75-33.72 290.28-33.5 291.16-33.5L291.16-33.5ZM306.93-18.75L306.93-18.7 306.93-18.75ZM336.36-0.98L324.64-0.98 324.13-17.24Q324.13-18.92 324.18-21.04 324.23-23.17 324.3-24.88 324.37-26.59 324.44-28.76 324.5-30.93 324.5-32.71L324.5-32.71Q324.5-33.2 324.83-33.34 325.16-33.47 325.66-33.42 326.16-33.37 326.79-33.5L326.79-33.5 344.27-33.5Q345.76-33.5 347.25-33.12 348.74-32.74 350.17-31.9 351.6-31.05 352.68-29.85 353.77-28.64 354.44-26.83 355.11-25.02 355.11-22.85L355.11-22.85Q355.11-19.97 353.89-17.74 352.67-15.5 350.23-13.53L350.23-13.53Q347.23-11.96 343-11.72L343-11.72 342.22-11.72Q341.24-11.52 340.27-11.52L340.27-11.52 338.32-11.52Q338.17-11.52 338.07-11.47L338.07-11.47Q338.07-5.08 338.27-1.81L338.27-1.81Q338.14-1.32 337.74-1.15 337.34-0.98 336.36-0.98L336.36-0.98ZM336.85-19.63L336.85-19.63 336.85-19.19Q336.87-19.17 337.18-19.03 337.49-18.9 337.49-18.85L337.49-18.85 337.49-18.8Q337.44-18.8 337.44-18.9L337.44-18.9Q337.49-18.85 337.73-18.85L337.73-18.85Q339.9-18.85 341.4-19.82 342.9-20.8 342.9-22.85L342.9-22.85Q342.9-23.78 342.59-24.44 342.27-25.1 341.82-25.45 341.37-25.81 340.6-25.99 339.83-26.17 339.19-26.22 338.56-26.27 337.58-26.27L337.58-26.27Q337.56-26.25 337.39-26.1 337.22-25.95 337.14-25.88L337.14-25.88 337.14-23.34Q336.85-21 336.85-19.63ZM380.78-0.98L358.37-0.98Q358.3-1.07 358.14-1.2 357.98-1.32 357.79-1.66L357.79-1.66 357.79-12.21Q357.79-14.28 357.96-18.58 358.13-22.88 358.13-25.1L358.13-25.1Q358.13-25.59 358.03-27.17 357.93-28.76 357.93-29.69L357.93-29.69Q357.93-33.13 358.76-33.89L358.76-33.89Q363.84-33.79 366.33-33.79L366.33-33.79 368.67-33.79Q369.51-33.79 369.94-33.74L369.94-33.74Q369.99-33.79 370.19-33.79L370.19-33.79Q370.24-33.79 370.62-33.74 370.99-33.69 371.21-33.69L371.21-33.69Q371.82-33.62 372.24-32.67L372.24-32.67 372.24-32.32Q372.24-32.06 372.21-31.54 372.19-31.03 372.19-30.76L372.19-30.76 372.19-29.69Q372.17-29.57 371.89-29.26 371.6-28.96 371.6-28.76L371.6-28.76 371.6-10.94 381.96-10.94Q382.35-10.94 382.54-10.91 382.74-10.89 382.93-10.69 383.13-10.5 383.13-10.11L383.13-10.11 383.13-1.95Q382.93-0.98 380.78-0.98L380.78-0.98ZM385.66-1.81L385.66-31.54Q385.66-33.01 385.78-33.25L385.78-33.25Q386-33.59 386.49-33.59L386.49-33.59 387.07-33.59Q387.46-33.59 387.61-33.54L387.61-33.54 388.88-33.54Q391.34-33.54 396.34-33.67 401.33-33.79 403.82-33.79L403.82-33.79 410.31-33.79Q410.95-33.72 410.95-33.15L410.95-33.15 410.95-25Q410.92-24.85 410.86-24.74 410.8-24.63 410.77-24.6 410.73-24.56 410.53-24.43 410.34-24.29 410.27-24.22L410.27-24.22 398.94-24.22 398.94-21.19 400.01-21.19Q401.43-21.19 404.33-21.29 407.24-21.39 408.8-21.39L408.8-21.39Q409.48-21.39 409.73-21.12 409.97-20.85 409.97-20.36L409.97-20.36Q409.97-20.24 409.92-19.95 409.87-19.65 409.87-19.53L409.87-19.53 409.87-18.6Q409.87-18.51 409.9-18.2 409.92-17.9 409.92-17.68L409.92-17.68 409.92-16.99Q409.92-16.46 409.97-15.92 410.02-15.38 410.02-14.99L410.02-14.99 410.02-14.36Q409.9-14.06 409.83-13.96 409.75-13.87 409.58-13.87L409.58-13.87 409.58-13.92Q408.68-13.92 406.47-13.79 404.26-13.67 402.94-13.67L402.94-13.67 399.03-13.67 399.03-10.55Q399.23-10.55 399.62-10.52 400.01-10.5 400.21-10.5L400.21-10.5Q401.31-10.5 403.45-10.57 405.6-10.64 406.55-10.64L406.55-10.64 409.68-10.64Q410.95-10.64 411.29-10.35L411.29-10.35Q411.41-10.21 411.49-10.06L411.49-10.06 411.49-2.25Q411.49-1.73 411.29-1.46 411.1-1.2 410.56-1.17L410.56-1.17 386.39-1.17 385.66-1.81Z" opacity="1" transform="matrix(1,0,0,1,0,0)" fill="#00d1cd" class="slogan-text-1" data-fill-palette-color="secondary" id="text-1"></path></svg></g></svg></g></svg></g></svg></g><g transform="matrix(1,0,0,1,20.650000320000004,0)"><svg viewBox="0 0 356.1975993599999 356.1975993599999" height="356.1975993599999" width="356.1975993599999"><g><svg xmlns="http://www.w3.org/2000/svg" xmlns:xlink="http://www.w3.org/1999/xlink" version="1.1" x="0" y="0" viewBox="5 5 90 90" enable-background="new 0 0 100 100" xml:space="preserve" height="356.1975993599999" width="356.1975993599999" class="icon-icon-0" data-fill-palette-color="accent" id="icon-0"><path d="M50 5C25.147 5 5 25.146 5 50c0 24.854 20.147 45 45 45 24.854 0 45-20.146 45-45C95 25.146 74.854 5 50 5zM71.229 48.526L43.645 78.073C42.451 79.354 41.496 80 40.802 80c-0.315 0-0.575-0.128-0.755-0.371-0.419-0.572-0.354-1.759 0.198-3.531l6.073-19.488c0.115-0.365 0.078-0.705-0.104-0.951-0.182-0.251-0.494-0.387-0.877-0.387H30.42c-1.318 0-2.223-0.408-2.545-1.151-0.322-0.738-0.004-1.679 0.895-2.646l27.583-29.548c1.195-1.28 2.15-1.927 2.845-1.927 0.313 0 0.575 0.128 0.756 0.371 0.419 0.572 0.353 1.759-0.201 3.532l-6.071 19.49c-0.113 0.369-0.08 0.704 0.106 0.955 0.183 0.246 0.491 0.382 0.877 0.382H69.58c1.32 0 2.223 0.408 2.547 1.151C72.447 46.621 72.131 47.56 71.229 48.526z" fill="#00d1cd" data-fill-palette-color="accent"></path></svg></g></svg></g><g></g></svg></g><defs></defs></svg><rect width="195.1056593939202" height="247.2" fill="none" stroke="none" visibility="hidden"></rect></g></svg></g></svg>