<?xml version="1.0" standalone="no"?>
<!DOCTYPE svg PUBLIC "-//W3C//DTD SVG 20010904//EN"
 "http://www.w3.org/TR/2001/REC-SVG-20010904/DTD/svg10.dtd">
<svg version="1.0" xmlns="http://www.w3.org/2000/svg"
 width="1023.000000pt" height="440.000000pt" viewBox="0 0 1023.000000 440.000000"
 preserveAspectRatio="xMidYMid meet">

<g transform="translate(0.000000,440.000000) scale(0.100000,-0.100000)"
fill="#000000" stroke="none">
<path d="M2037 4134 c-24 -48 -1027 -2493 -1027 -2505 0 -7 9 -9 23 -5 12 3
32 6 45 6 19 0 22 5 22 35 0 34 65 204 240 625 45 107 128 310 185 450 145
357 264 645 320 780 26 63 76 183 110 265 101 242 117 287 118 322 1 48 -18
62 -36 27z"/>
<path d="M8900 4140 c-6 -10 -177 -425 -381 -922 -204 -497 -428 -1040 -497
-1208 -164 -400 -156 -379 -150 -385 3 -3 23 -3 45 1 39 6 41 7 46 53 3 25 29
102 57 171 28 69 96 233 149 365 96 235 199 483 368 895 47 113 129 313 183
445 54 132 121 296 149 365 61 148 72 186 65 217 -7 28 -20 29 -34 3z"/>
<path d="M5760 4146 c0 -2 33 -22 73 -44 39 -22 122 -72 182 -112 117 -77 110
-53 -9 29 -85 58 -246 141 -246 127z"/>
<path d="M4955 3593 c-137 -23 -244 -73 -324 -154 -151 -152 -197 -331 -257
-1009 -39 -449 21 -981 137 -1212 35 -69 46 -77 19 -13 -48 113 -85 276 -110
485 -18 153 -8 977 14 1110 58 359 178 582 367 685 67 36 226 75 313 76 l71 1
-65 19 c-59 17 -110 21 -165 12z"/>
<path d="M6411 3535 c0 -5 6 -21 14 -35 8 -14 14 -20 14 -15 0 6 -6 21 -14 35
-8 14 -14 21 -14 15z"/>
<path d="M6440 3470 c0 -3 14 -45 30 -94 85 -250 129 -514 150 -905 26 -476
-38 -909 -206 -1391 -43 -123 -65 -180 -150 -384 -71 -171 -333 -369 -608
-461 -195 -65 -477 -104 -661 -90 -293 21 -592 136 -960 370 l-60 38 60 -62
c245 -254 607 -381 1080 -381 822 0 1308 392 1470 1185 38 188 54 314 67 535
36 608 -24 1184 -161 1536 -28 71 -50 117 -51 104z"/>
<path d="M9580 2138 l0 -508 23 0 22 0 -2 447 c-3 472 -5 519 -28 549 -13 17
-14 -47 -15 -488z"/>
<path d="M2721 2128 c-1 -468 0 -498 17 -498 15 0 17 12 15 127 -2 71 -4 283
-6 473 -2 228 -7 354 -14 370 -9 19 -12 -95 -12 -472z"/>
<path d="M3106 1495 c-10 -26 -7 -568 4 -585 7 -11 11 -8 20 15 15 39 9 560
-6 575 -8 8 -13 7 -18 -5z"/>
<path d="M9971 1205 c0 -176 4 -292 9 -280 5 11 9 137 9 280 0 143 -4 269 -9
280 -5 12 -9 -104 -9 -280z"/>
<path d="M2721 559 c0 -247 3 -327 11 -309 6 14 13 133 17 270 5 211 8 250 24
273 32 49 59 59 182 66 63 4 118 10 121 14 4 4 -51 7 -122 7 -71 0 -153 3
-181 6 l-53 7 1 -334z"/>
<path d="M9580 557 l0 -337 -367 -2 c-332 -3 -366 -4 -343 -18 20 -12 81 -16
332 -18 288 -3 311 -2 352 17 61 27 66 49 66 316 1 313 12 331 202 345 54 3
101 10 105 13 3 4 -43 7 -103 7 -60 0 -139 3 -176 7 l-68 6 0 -336z"/>
<path d="M294 873 c4 -5 353 -10 774 -13 422 -3 775 -9 785 -14 13 -6 17 -4
17 13 l0 21 -792 0 c-435 0 -788 -3 -784 -7z"/>
<path d="M7160 870 c14 -4 358 -8 765 -9 423 -1 754 -5 773 -10 28 -9 32 -7
32 10 0 19 -16 19 -797 18 -439 -1 -787 -5 -773 -9z"/>
<path d="M1976 211 c28 -26 90 -31 363 -31 271 0 352 7 366 30 4 6 -130 10
-366 10 -210 0 -369 -4 -363 -9z"/>
</g>
</svg>
